
      <svg data-logo="logo" xmlns="http://www.w3.org/2000/svg" viewBox="0 0 242 42">
        <g id="logogram" transform="translate(0, 21) rotate(0) "></g>
        <g id="logotype" transform="translate(0, 1)"><path fill="#1a8cff" d="M26.59 15.50L26.59 33L21.70 33L21.70 15.50Q21.70 14.99 21.51 14.54Q21.31 14.10 20.98 13.77Q20.64 13.43 20.20 13.24Q19.76 13.06 19.24 13.06L19.24 13.06Q18.73 13.06 18.29 13.24Q17.84 13.43 17.51 13.77Q17.18 14.10 16.99 14.54Q16.80 14.99 16.80 15.50L16.80 15.50L16.80 33L11.89 33L11.89 15.50Q11.89 14.99 11.71 14.54Q11.52 14.10 11.19 13.77Q10.85 13.43 10.41 13.24Q9.96 13.06 9.45 13.06L9.45 13.06Q8.94 13.06 8.49 13.24Q8.05 13.43 7.72 13.77Q7.38 14.10 7.19 14.54Q7.01 14.99 7.01 15.50L7.01 15.50L7.01 33L2.10 33L2.10 15.50Q2.10 13.98 2.67 12.64Q3.25 11.30 4.25 10.30Q5.25 9.30 6.59 8.72Q7.93 8.15 9.45 8.15L9.45 8.15Q10.82 8.15 12.08 8.64Q13.35 9.13 14.36 10.05L14.36 10.05Q15.36 9.13 16.62 8.64Q17.88 8.15 19.24 8.15L19.24 8.15Q20.76 8.15 22.11 8.72Q23.45 9.30 24.45 10.30Q25.45 11.30 26.02 12.64Q26.59 13.98 26.59 15.50L26.59 15.50ZM37.07 40.01L34.68 39.97L34.68 35.27L37.27 35.31Q37.96 35.31 38.59 35.08Q39.22 34.86 39.76 34.47Q40.30 34.08 40.71 33.54Q41.12 33 41.37 32.37L41.37 32.37Q40.61 32.69 39.81 33.02Q39.02 33.34 38.21 33.34L38.21 33.34Q36.52 33.34 35.03 32.74Q33.55 32.15 32.43 31.04Q31.31 29.94 30.67 28.36Q30.03 26.78 30.03 24.81L30.03 24.81L30.03 14.70L34.68 14.70L34.68 24.81Q34.68 25.79 34.96 26.51Q35.24 27.24 35.72 27.73Q36.20 28.21 36.84 28.45Q37.48 28.69 38.21 28.69L38.21 28.69Q38.93 28.69 39.57 28.36Q40.21 28.03 40.69 27.48Q41.17 26.93 41.44 26.24Q41.72 25.55 41.72 24.81L41.72 24.81L41.72 14.70L46.42 14.70L46.42 30.69Q46.40 32.62 45.66 34.32Q44.93 36.01 43.66 37.27Q42.38 38.54 40.69 39.27Q39.00 40.01 37.07 40.01L37.07 40.01ZM65.16 23.21L65.16 33L60.26 33L60.26 8.49L65.16 8.49L65.16 18.30L74.96 18.30L74.96 8.49L79.86 8.49L79.86 33L74.96 33L74.96 23.21L65.16 23.21ZM88.58 22.92L88.58 33L83.91 33L83.91 14.70L85.04 14.70L86.58 16.87Q87.71 15.84 89.14 15.29Q90.58 14.73 92.11 14.73L92.11 14.73L96.23 14.73L96.23 19.38L92.11 19.38Q91.38 19.38 90.73 19.65Q90.08 19.93 89.60 20.40Q89.12 20.88 88.85 21.53Q88.58 22.18 88.58 22.92L88.58 22.92ZM121.68 21.38L121.68 33L117.03 33L117.03 21.38Q117.03 20.90 116.85 20.47Q116.67 20.05 116.35 19.72Q116.02 19.40 115.60 19.22Q115.17 19.04 114.69 19.04L114.69 19.04Q114.21 19.04 113.79 19.22Q113.37 19.40 113.06 19.72Q112.74 20.05 112.56 20.47Q112.38 20.90 112.38 21.38L112.38 21.38L112.38 33L107.72 33L107.72 21.38Q107.72 20.90 107.54 20.47Q107.36 20.05 107.03 19.72Q106.71 19.40 106.28 19.22Q105.85 19.04 105.38 19.04L105.38 19.04Q104.90 19.04 104.48 19.22Q104.06 19.40 103.74 19.72Q103.43 20.05 103.25 20.47Q103.07 20.90 103.07 21.38L103.07 21.38L103.07 33L98.40 33L98.40 14.70L99.53 14.70L100.80 16.10Q101.77 15.28 102.94 14.82Q104.11 14.37 105.38 14.37L105.38 14.37Q106.66 14.37 107.88 14.85Q109.10 15.33 110.02 16.51L110.02 16.51Q110.45 15.93 111.00 15.52Q111.55 15.11 112.15 14.85Q112.76 14.59 113.41 14.48Q114.06 14.37 114.69 14.37L114.69 14.37Q116.14 14.37 117.42 14.92Q118.69 15.47 119.64 16.41Q120.59 17.36 121.13 18.64Q121.68 19.93 121.68 21.38L121.68 21.38ZM135.13 33L135.13 33L124.47 33L124.47 28.35L135.13 28.35Q135.61 28.35 135.95 28.01Q136.29 27.67 136.29 27.19L136.29 27.19Q136.29 26.69 135.95 26.54Q135.61 26.39 135.13 26.39L135.13 26.39L130.28 26.39Q129.06 26.39 128.00 25.92Q126.94 25.46 126.16 24.67Q125.37 23.87 124.92 22.81Q124.47 21.75 124.47 20.54L124.47 20.54Q124.47 19.33 124.92 18.27Q125.37 17.21 126.16 16.42Q126.94 15.64 128.00 15.18Q129.06 14.73 130.28 14.73L130.28 14.73L139.73 14.73L139.73 19.38L130.28 19.38Q129.80 19.38 129.46 19.72Q129.11 20.06 129.11 20.54L129.11 20.54Q129.11 21.04 129.46 21.39Q129.80 21.74 130.28 21.74L130.28 21.74L135.13 21.74Q136.33 21.74 137.39 22.14Q138.44 22.54 139.23 23.26Q140.02 23.98 140.48 24.98Q140.94 25.99 140.94 27.19L140.94 27.19Q140.94 28.40 140.48 29.45Q140.02 30.50 139.23 31.30Q138.44 32.09 137.39 32.55Q136.33 33 135.13 33ZM170.68 26.22L173.27 30.49Q171.56 31.96 169.45 32.74Q167.33 33.53 165.05 33.53L165.05 33.53Q163.31 33.53 161.70 33.08Q160.08 32.62 158.67 31.80Q157.26 30.97 156.10 29.80Q154.94 28.64 154.11 27.23Q153.28 25.82 152.83 24.21Q152.37 22.59 152.37 20.85L152.37 20.85Q152.37 19.11 152.83 17.48Q153.28 15.86 154.11 14.45Q154.94 13.04 156.10 11.88Q157.26 10.71 158.67 9.89Q160.08 9.06 161.70 8.60Q163.31 8.15 165.05 8.15L165.05 8.15Q167.33 8.15 169.45 8.93Q171.56 9.71 173.27 11.19L173.27 11.19L170.68 15.47Q169.60 14.30 168.13 13.68Q166.66 13.06 165.05 13.06L165.05 13.06Q163.43 13.06 162.01 13.67Q160.59 14.29 159.53 15.34Q158.47 16.39 157.86 17.82Q157.24 19.24 157.24 20.85L157.24 20.85Q157.24 22.46 157.86 23.87Q158.47 25.28 159.53 26.33Q160.59 27.39 162.01 28.01Q163.43 28.63 165.05 28.63L165.05 28.63Q166.66 28.63 168.13 28.00Q169.60 27.38 170.68 26.22L170.68 26.22ZM180.31 7.42L180.31 33L175.62 33L175.62 7.42L180.31 7.42ZM201.56 23.69L201.56 23.69Q201.56 25.74 200.82 27.51Q200.09 29.27 198.82 30.56Q197.56 31.85 195.86 32.60Q194.16 33.34 192.21 33.34L192.21 33.34Q190.28 33.34 188.58 32.60Q186.88 31.85 185.60 30.56Q184.33 29.27 183.60 27.51Q182.86 25.74 182.86 23.69L182.86 23.69Q182.86 21.60 183.60 19.82Q184.33 18.05 185.60 16.76Q186.88 15.47 188.58 14.73Q190.28 14.00 192.21 14.00L192.21 14.00Q194.16 14.00 195.86 14.69Q197.56 15.38 198.82 16.65Q200.09 17.93 200.82 19.71Q201.56 21.50 201.56 23.69ZM196.86 23.69L196.86 23.69Q196.86 22.56 196.49 21.64Q196.12 20.73 195.49 20.07Q194.86 19.41 194.01 19.06Q193.17 18.71 192.21 18.71L192.21 18.71Q191.25 18.71 190.41 19.06Q189.56 19.41 188.94 20.07Q188.31 20.73 187.95 21.64Q187.60 22.56 187.60 23.69L187.60 23.69Q187.60 24.75 187.95 25.65Q188.31 26.56 188.94 27.22Q189.56 27.89 190.41 28.27Q191.25 28.66 192.21 28.66L192.21 28.66Q193.17 28.66 194.01 28.30Q194.86 27.94 195.49 27.29Q196.12 26.64 196.49 25.72Q196.86 24.80 196.86 23.69ZM219.13 33L217.59 30.86Q217.02 31.38 216.38 31.83Q215.74 32.28 215.04 32.62Q214.34 32.95 213.60 33.15Q212.85 33.34 212.08 33.34L212.08 33.34Q210.39 33.34 208.91 32.74Q207.42 32.15 206.30 31.04Q205.18 29.94 204.54 28.36Q203.90 26.78 203.90 24.81L203.90 24.81L203.90 14.70L208.55 14.70L208.55 24.81Q208.55 25.74 208.83 26.46Q209.11 27.19 209.59 27.69Q210.07 28.18 210.71 28.44Q211.35 28.69 212.08 28.69L212.08 28.69Q212.80 28.69 213.44 28.36Q214.08 28.03 214.56 27.48Q215.04 26.93 215.31 26.24Q215.59 25.55 215.59 24.81L215.59 24.81L215.59 14.70L220.25 14.70L220.25 33L219.13 33ZM241.50 7.42L241.50 33L240.37 33L238.56 30.49Q237.89 31.09 237.15 31.61Q236.40 32.13 235.58 32.51Q234.76 32.90 233.90 33.12Q233.04 33.34 232.15 33.34L232.15 33.34Q230.22 33.34 228.52 32.62Q226.82 31.89 225.54 30.60Q224.27 29.31 223.54 27.54Q222.80 25.77 222.80 23.69L222.80 23.69Q222.80 21.62 223.54 19.84Q224.27 18.06 225.54 16.76Q226.82 15.47 228.52 14.73Q230.22 14.00 232.15 14.00L232.15 14.00Q232.76 14.00 233.42 14.10Q234.08 14.20 234.70 14.43Q235.33 14.66 235.87 15.04Q236.42 15.41 236.80 15.96L236.80 15.96L236.80 7.42L241.50 7.42ZM236.80 23.69L236.80 23.69Q236.80 22.73 236.43 21.83Q236.06 20.93 235.43 20.24Q234.80 19.55 233.95 19.13Q233.11 18.71 232.15 18.71L232.15 18.71Q231.19 18.71 230.35 19.05Q229.50 19.40 228.88 20.04Q228.25 20.68 227.89 21.60Q227.53 22.52 227.53 23.69L227.53 23.69Q227.53 24.69 227.89 25.60Q228.25 26.51 228.88 27.19Q229.50 27.87 230.35 28.27Q231.19 28.66 232.15 28.66L232.15 28.66Q233.11 28.66 233.95 28.24Q234.80 27.82 235.43 27.13Q236.06 26.44 236.43 25.54Q236.80 24.64 236.80 23.69Z"/></g>
        
      </svg>
    